# xmcd
#
# Track frame offsets:
#	150
#	9870
#	18398
#	28276
#	37186
#	47161
#	55981
#	65769
#	79187
#	91945
#	102895
#	114295
#
# Disc length: 1670 seconds
#
# Revision: 1
# Processed by: cddbd v1.5.2PL0 Copyright (c) Steve Scherf et al.
# Submitted via: audiograbber 1.83.01
#
DISCID=9706840c
DTITLE=Buck Owens - I've Got A Tiger By The Tail
DYEAR=1965
DGENRE=Country
TTITLE0=I've Got A Tiger By The Tail
TTITLE1=Trouble And Me
TTITLE2=Let The Sad Times Roll On
TTITLE3=Wham Bam
TTITLE4=If You Fall Out Of Love With Me
TTITLE5=Fallin' For You
TTITLE6=We're Gonna Let The Good Times Roll
TTITLE7=The Dand Keeps Planin' On
TTITLE8=Streets Of Laredo
TTITLE9=Cryin' Time
TTITLE10=A Maiden's Prayer
TTITLE11=Memphis
EXTD=
EXTT0=
EXTT1=
EXTT2=
EXTT3=
EXTT4=
EXTT5=
EXTT6=
EXTT7=
EXTT8=
EXTT9=
EXTT10=
EXTT11=
PLAYORDER=
